<svg xmlns="http://www.w3.org/2000/svg" viewBox="0 0 326 241.37"><defs><style>.cls-1{fill:#9abfed;}.cls-2{fill:#fff;}.cls-3{fill:#b7d7f9;}</style></defs><title>Asset 5</title><g id="Layer_2" data-name="Layer 2"><g id="Layer_1-2" data-name="Layer 1"><path class="cls-1" d="M251.72,43.26s27.57,20.48,29.14,55.93c0,0,39.39,10.24,44.9,63,0,0,7.09,66.16-56.32,79.16H60.7S6.75,241.76.44,175.6C-6.07,107.21,61.1,93.68,61.1,93.68,49.28,41.69,91,14.12,91,14.12,150.89-24.48,192.64,28.3,192.64,28.3S227.3,22,251.72,43.26Z"/><path class="cls-2" d="M32.44,219.31l3-37.74h8.06l5.15,13.72c.9,2.31,1.74,4.62,2.52,6.91s1.35,4,1.68,5.13l.51,1.74q1.72-5.83,4.81-13.78l5.27-13.72h8.06l3.7,37.74H68.17l-1.34-14.72-1-13.22q-2,5.76-4.82,13.22l-5.26,14.16H50.92l-5.15-14.16-4.42-13.05q0,2.75-.73,13.05L39.5,219.31Z"/><path class="cls-2" d="M104.63,204.86V181.57h7.05v23.24q0,7.33-4,11.17T96.9,219.82q-6.72,0-10.73-3.78t-4-10.84V181.57h7.06v23.58q0,4.31,2.12,6.24a7.93,7.93,0,0,0,5.55,1.93Q104.63,213.32,104.63,204.86Z"/><path class="cls-2" d="M155.53,224.47l-7.95,3.08-11.09-7.85h-.84q-8.11,0-13-5.31t-4.87-14.06q0-8.79,4.84-14.11t13-5.32q8.24,0,13,5.29t4.82,14.14A22,22,0,0,1,151,211a15.76,15.76,0,0,1-6.94,6.77Zm-30.18-24.14q0,5.94,2.8,9.41a9.87,9.87,0,0,0,15,0q2.74-3.45,2.75-9.44t-2.75-9.47a9.91,9.91,0,0,0-15.06,0Q125.35,194.34,125.35,200.33Z"/><path class="cls-2" d="M160.12,181.57h11.82q6.38,0,10.22,3.47a12.44,12.44,0,0,1-.11,18.06,14.74,14.74,0,0,1-9.94,3.39h-4.93v12.82h-7.06Zm7.06,19.21h4q3.87,0,5.77-1.85a6.61,6.61,0,0,0,1.91-5,6.29,6.29,0,0,0-1.91-4.85,8,8,0,0,0-5.6-1.76h-4.14Z"/><path class="cls-2" d="M189.75,200.33q0-8.79,4.84-14.11t13-5.32q8.23,0,13,5.29t4.82,14.14q0,8.73-4.85,14.06t-13,5.31q-8.12,0-13-5.31T189.75,200.33Zm7.56,0q0,5.94,2.8,9.41a9.87,9.87,0,0,0,15,0q2.74-3.45,2.75-9.44t-2.75-9.47a9.91,9.91,0,0,0-15.06,0Q197.31,194.34,197.31,200.33Z"/><path class="cls-3" d="M230.12,218.81a3.22,3.22,0,0,1-1-2.35,3.31,3.31,0,1,1,6.61,0,3.33,3.33,0,0,1-5.66,2.35Z"/><path class="cls-3" d="M245.8,179.72v15.46a9.74,9.74,0,0,1,8.62-4.71,10.93,10.93,0,0,1,8.8,4.12q3.4,4.11,3.41,10.78a16.24,16.24,0,0,1-3.22,10.19,10.55,10.55,0,0,1-8.87,4.2,9.8,9.8,0,0,1-8.74-4.65v4.2h-4.42V179.72Zm8.35,36a6.88,6.88,0,0,0,5.65-2.86,11.71,11.71,0,0,0,2.24-7.44q0-5.27-2.32-8.1a7.27,7.27,0,0,0-5.85-2.82,7.71,7.71,0,0,0-5.55,2.52c-1.68,1.67-2.52,4.31-2.52,7.89,0,3.77.81,6.52,2.44,8.23A7.81,7.81,0,0,0,254.15,215.73Z"/><path class="cls-3" d="M293.85,213.71v4.15a17.28,17.28,0,0,1-8.07,1.73,13.56,13.56,0,0,1-14.33-14.39q0-6.78,3.53-10.69a11.62,11.62,0,0,1,9.07-3.92A10.9,10.9,0,0,1,292.5,194q3.13,3.42,3.14,9.69a17.81,17.81,0,0,1-.28,3.3H276a9.45,9.45,0,0,0,3.2,6.44,10.61,10.61,0,0,0,7.05,2.24A13.22,13.22,0,0,0,293.85,213.71Zm-2.63-10.41v-1.12a8.05,8.05,0,0,0-1.91-5.63,6.74,6.74,0,0,0-5.26-2.1,7.29,7.29,0,0,0-5.43,2.29A10.49,10.49,0,0,0,276,203.3Z"/><path class="cls-1" d="M288.35,76.2V74h10.58V76.2h-4V90.29h-2.41V76.2Zm12,14L301.67,74h3.41l3,8.51,1.47,4.63c.5-1.54,1-3.09,1.61-4.63L314.29,74h3.5l1.09,16.21h-2.46l-.52-7.89L315.66,77c-.28.82-.93,2.6-1.93,5.34l-2.84,7.51H308.2l-2.65-7.51L303.71,77c-.1.85-.22,2.63-.38,5.34l-.43,7.89Z"/></g></g></svg>